# xmcd
#
# Track frame offsets: 
#        150
#        11387
#        22372
#        32570
#        45259
#        57314
#        69026
#        82043
#        91037
#        100454
#        110732
#        122062
#
# Disc length: 1783 seconds
#
# Revision: 0
# Processed by: cddbd v1.5.2PL0 Copyright (c) Steve Scherf et al.
# Submitted via: ExactAudioCopyFreeDBPlugin 1.0
#
DISCID=9206f50c
DTITLE=Chris Kenner - Land of 1000 Dances
DYEAR=1966
DGENRE=R&B
TTITLE0=Land of 1000 Dances
TTITLE1=Come Back And See
TTITLE2=How Far
TTITLE3=Time
TTITLE4=Come And See About Me
TTITLE5=Packing Up
TTITLE6=Something You Got
TTITLE7=I Like It Like That - Part 1
TTITLE8=I Like It Like That - Part 2
TTITLE9=Go Thru Life
TTITLE10=A Very True Story
TTITLE11=That's My Girl
EXTD=
EXTT0=
EXTT1=
EXTT2=
EXTT3=
EXTT4=
EXTT5=
EXTT6=
EXTT7=
EXTT8=
EXTT9=
EXTT10=
EXTT11=
PLAYORDER=
